<svg id="레이어_1" data-name="레이어 1" xmlns="http://www.w3.org/2000/svg" viewBox="0 0 170.04 160.6"><defs><style>.cls-1{fill:#fff100;}.cls-2,.cls-3,.cls-4{fill:none;stroke-linecap:round;stroke-linejoin:round;}.cls-2{stroke:#231815;stroke-width:4px;}.cls-3,.cls-4{stroke:#fff100;}.cls-3{stroke-width:5px;}.cls-4{stroke-width:8px;}.cls-5{fill:#ec671f;}</style></defs><path class="cls-1" d="M65.75,122.08S8,94.24,37.92,49.91s72.16-18.55,72.16-18.55,21.65,16.49,24.75,37.11-21.65,53.61-21.65,53.61Z"/><path class="cls-1" d="M100.48,129.44S147.54,88.63,150.82,88a4,4,0,0,1,4.43,1.5,4.32,4.32,0,0,1,.93,3.56c-.43,2.33-1.39,6.9-2.68,9.51-1.79,3.61-12,19.1-17.11,22.5s-27.32,14.64-27.32,14.64Z"/><path class="cls-1" d="M67.16,129.21s-47.73-44-54.86-39.84c-2.16,1.5-1.37,3.81-.84,4.88A8.45,8.45,0,0,1,12,95.87c.58,2.2,2,7.35,3.58,10.13,2,3.6,13,18.84,18.07,21.92s26.63,12.79,26.63,12.79Z"/><path class="cls-1" d="M117.45,148.11c13-11-3.32-34.73-3.32-34.73s-31.41-5.61-50.81,0-12.89,28.85-12.89,28.85,2.68,13,14.68,12.26c0,0,39.37,1.79,42.89-.38C113.11,152.83,117.45,148.11,117.45,148.11Z"/><polyline class="cls-2" points="50.55 68.06 69.87 76.46 50.55 86.81"/><polyline class="cls-2" points="116.17 64.64 98.17 73.28 116.17 83.94"/><line class="cls-2" x1="68.71" y1="77.06" x2="48.26" y2="77.06"/><line class="cls-2" x1="99.97" y1="74.29" x2="118.72" y2="74.29"/><path class="cls-3" d="M75.34,16.51S80.21,19.32,69.47,30"/><path class="cls-4" d="M84.12,9.38S89.68,17.33,82.31,26"/><path class="cls-3" d="M97,16.51s4.86,2.81-5.87,13.53"/><polygon class="cls-5" points="84.07 79.03 69.01 86.69 84.28 91.54 98.62 85.28 84.07 79.03"/></svg>