<?xml version="1.0" standalone="no"?>
<!DOCTYPE svg PUBLIC "-//W3C//DTD SVG 20010904//EN"
 "http://www.w3.org/TR/2001/REC-SVG-20010904/DTD/svg10.dtd">
<svg version="1.0" xmlns="http://www.w3.org/2000/svg"
 width="680.000000pt" height="680.000000pt" viewBox="0 0 680.000000 680.000000"
 preserveAspectRatio="xMidYMid meet">
<metadata>
Created by potrace 1.14, written by Peter Selinger 2001-2017
</metadata>
<g transform="translate(0.000000,680.000000) scale(0.100000,-0.100000)"
fill="#000000" stroke="none">
<path d="M3315 6387 c-99 -31 -143 -170 -80 -247 49 -59 63 -239 24 -311 -5
-11 -8 -19 -5 -19 7 0 -33 -67 -69 -118 -23 -31 -37 -42 -57 -42 -33 0 -32 -2
-11 41 61 123 45 263 -38 332 -38 31 -67 34 -114 11 -53 -25 -68 -102 -28
-146 25 -28 23 -65 -10 -128 -33 -63 -103 -159 -117 -161 -13 -2 -22 -4 -40
-12 -8 -3 -35 -12 -60 -18 -56 -16 -50 -14 -85 -28 -16 -6 -53 -21 -82 -32
-29 -12 -55 -20 -59 -19 -4 1 -10 -2 -13 -7 -3 -4 -40 -26 -81 -47 -41 -21
-82 -44 -90 -51 -8 -6 -22 -14 -30 -18 -21 -7 -157 -103 -215 -152 -93 -77
-168 -149 -297 -286 -19 -19 -44 -50 -57 -68 -13 -18 -33 -43 -45 -55 -11 -13
-38 -47 -59 -77 -20 -30 -44 -63 -53 -74 -104 -133 -283 -494 -309 -625 -2 -8
-4 -15 -5 -15 -2 0 -17 -62 -26 -109 -2 -16 -6 -32 -8 -35 -2 -3 -8 -40 -12
-81 -16 -146 -6 -396 17 -459 6 -14 10 -27 9 -29 -4 -6 13 -73 37 -145 28 -89
94 -237 138 -312 41 -72 147 -227 166 -245 8 -8 20 -23 25 -32 12 -22 135
-159 208 -230 50 -49 91 -87 196 -178 26 -23 198 -153 256 -194 l26 -19 -33
-28 c-19 -16 -36 -29 -39 -29 -5 0 -16 9 -117 97 -33 29 -73 63 -89 75 -16 13
-36 30 -44 38 -9 8 -37 33 -64 55 -27 22 -57 47 -67 55 -9 8 -34 29 -55 45
-20 17 -42 35 -48 40 -6 6 -34 28 -61 49 -28 22 -54 44 -60 51 -5 6 -26 22
-45 35 -19 13 -41 31 -49 38 -30 29 -400 302 -409 302 -6 0 -12 4 -14 8 -4 10
-149 105 -243 159 -118 68 -230 113 -283 113 -34 0 -79 -29 -92 -59 -22 -54
-20 -88 11 -156 4 -11 20 -60 33 -110 64 -232 117 -347 233 -511 38 -53 78
-110 89 -128 12 -17 29 -37 38 -45 9 -7 16 -18 16 -23 0 -5 14 -23 30 -41 17
-18 33 -40 36 -49 3 -10 9 -18 13 -18 5 0 20 -17 33 -37 14 -21 36 -50 49 -64
13 -14 44 -49 69 -78 71 -85 180 -189 237 -227 53 -35 218 -119 496 -252 144
-70 147 -72 148 -104 1 -33 4 -65 14 -125 3 -18 6 -36 7 -40 0 -5 9 -38 19
-75 39 -141 114 -266 209 -350 33 -29 64 -52 68 -52 4 1 18 -6 32 -16 46 -33
131 -51 260 -56 69 -2 179 -6 245 -9 657 -25 1247 -23 1412 6 157 27 315 121
471 279 80 81 141 182 158 264 18 84 21 118 18 215 l-2 110 61 32 c34 18 89
47 122 65 33 18 90 48 127 68 85 45 112 60 118 66 3 3 25 16 50 30 59 31 103
62 143 97 44 39 163 174 223 253 27 36 51 67 54 70 18 16 270 386 270 395 0 3
15 28 33 57 52 82 76 142 107 262 48 185 56 243 36 290 -37 86 -120 130 -203
107 -24 -7 -43 -16 -43 -21 0 -6 -5 -10 -10 -10 -12 0 -123 -80 -128 -92 -2
-4 -7 -8 -12 -8 -5 0 -19 -9 -32 -20 -12 -11 -63 -52 -112 -90 -122 -97 -166
-133 -185 -150 -9 -8 -37 -31 -61 -50 -25 -19 -61 -49 -80 -67 -19 -18 -38
-33 -41 -33 -4 0 -25 -17 -48 -37 -22 -21 -46 -43 -53 -48 -7 -6 -35 -28 -63
-50 -27 -22 -56 -47 -65 -55 -9 -8 -38 -34 -66 -56 -27 -23 -96 -82 -154 -132
-58 -49 -106 -89 -108 -88 -2 3 33 62 96 164 13 20 25 45 29 54 3 10 9 18 14
18 5 0 9 5 9 10 0 6 20 46 45 90 85 149 198 382 250 515 15 39 30 75 33 80 4
6 7 12 7 15 1 3 17 55 38 115 32 97 75 261 92 350 7 38 16 167 17 225 0 191
-61 419 -170 639 -57 113 -171 305 -202 339 -9 9 -27 33 -40 53 -26 38 -93
120 -122 151 -10 10 -18 21 -18 24 0 9 -314 320 -380 377 -69 60 -229 142
-405 207 -33 12 -70 26 -83 31 -13 5 -31 9 -42 9 -31 0 -30 13 2 65 108 172
100 360 -17 421 -35 18 -59 18 -94 0 -29 -16 -67 -91 -50 -102 5 -3 7 -9 4
-13 -2 -5 6 -19 18 -33 35 -37 22 -85 -52 -198 -48 -74 -56 -79 -105 -67 -23
5 -48 9 -56 9 -8 0 -25 1 -37 4 l-22 4 25 62 c42 108 59 258 40 353 -3 17 -8
41 -11 54 -9 47 -39 126 -63 171 -34 61 -70 96 -112 105 -51 12 -63 12 -95 2z"/>
</g>
</svg>
